GRF
version=1
nRows=46
nColumns=10
inDegrees=no
endheader
time	1_ground_force_vx	1_ground_force_vy	1_ground_force_vz	1_ground_force_px	1_ground_force_py	1_ground_force_pz	1_ground_torque_x	1_ground_torque_y	1_ground_torque_z
      2.11000000	      1.94915413	    761.44364627	      1.87694641	      0.36766152	      0.00000000	      0.20368111	     -0.00000000	      0.78743167	     -0.00000000
      2.11100000	      1.89756440	    761.59040678	      1.87229266	      0.36769189	      0.00000000	      0.20366234	     -0.00000000	      0.78662673	     -0.00000000
      2.11200000	      1.89642285	    761.55376378	      1.86496460	      0.36770399	      0.00000000	      0.20364305	     -0.00000000	      0.78194817	     -0.00000000
      2.11300000	      1.92182474	    761.32769098	      1.84686742	      0.36770888	      0.00000000	      0.20362406	     -0.00000000	      0.77393139	     -0.00000000
      2.11400000	      1.96544982	    761.07385694	      1.79799003	      0.36771201	      0.00000000	      0.20360862	     -0.00000000	      0.76076157	     -0.00000000
      2.11500000	      2.00932897	    760.94723047	      1.74371366	      0.36770617	      0.00000000	      0.20359548	     -0.00000000	      0.74952505	     -0.00000000
      2.11600000	      2.06792740	    760.95147162	      1.72663713	      0.36768820	      0.00000000	      0.20359116	     -0.00000000	      0.74893154	     -0.00000000
      2.11700000	      2.14083003	    761.01940387	      1.75964715	      0.36765689	      0.00000000	      0.20360265	     -0.00000000	      0.75894331	     -0.00000000
      2.11800000	      2.17967174	    761.07591815	      1.83218872	      0.36761502	      0.00000000	      0.20362365	      0.00000000	      0.77317313	      0.00000000
      2.11900000	      2.16468809	    761.02504051	      1.91766415	      0.36759968	      0.00000000	      0.20364892	      0.00000000	      0.78225773	      0.00000000
      2.12000000	      2.10167224	    760.95406499	      1.98666765	      0.36762308	      0.00000000	      0.20366163	      0.00000000	      0.78623920	      0.00000000
      2.12100000	      2.02024836	    760.94854191	      2.04229168	      0.36766820	      0.00000000	      0.20365164	     -0.00000000	      0.78843633	     -0.00000000
      2.12200000	      1.96272817	    761.02017925	      2.05941220	      0.36770231	      0.00000000	      0.20363068	     -0.00000000	      0.78775601	     -0.00000000
      2.12300000	      1.92741620	    761.10860969	      2.05352276	      0.36770471	      0.00000000	      0.20360916	     -0.00000000	      0.78368847	     -0.00000000
      2.12400000	      1.91417251	    761.11501920	      2.04360367	      0.36768573	      0.00000000	      0.20359841	     -0.00000000	      0.77800973	     -0.00000000
      2.12500000	      1.92281525	    761.01856788	      2.04330633	      0.36766956	      0.00000000	      0.20360316	     -0.00000000	      0.77634212	     -0.00000000
      2.12600000	      1.93973357	    760.86115960	      2.06140910	      0.36766539	      0.00000000	      0.20361403	     -0.00000000	      0.78268019	     -0.00000000
      2.12700000	      1.95752218	    760.70782438	      2.07654654	      0.36766973	      0.00000000	      0.20361986	     -0.00000000	      0.78909660	     -0.00000000
      2.12800000	      1.96437532	    760.60178377	      2.07233750	      0.36768222	      0.00000000	      0.20361056	     -0.00000000	      0.78955060	     -0.00000000
      2.12900000	      1.95154095	    760.57734047	      2.05243027	      0.36769805	      0.00000000	      0.20357837	     -0.00000000	      0.78396955	     -0.00000000
      2.13000000	      1.92931140	    760.61252704	      2.01274791	      0.36772156	      0.00000000	      0.20353959	      0.00000000	      0.77944814	      0.00000000
      2.13100000	      1.89730998	    760.75385431	      1.97028019	      0.36773407	      0.00000000	      0.20351219	      0.00000000	      0.78133592	      0.00000000
      2.13200000	      1.86941631	    760.86177374	      1.93060344	      0.36774853	      0.00000000	      0.20350413	      0.00000000	      0.78698113	      0.00000000
      2.13300000	      1.86023541	    760.88417572	      1.89770984	      0.36777046	      0.00000000	      0.20351660	      0.00000000	      0.79062705	      0.00000000
      2.13400000	      1.86877179	    760.83950576	      1.88259003	      0.36780461	      0.00000000	      0.20354052	      0.00000000	      0.78950212	      0.00000000
      2.13500000	      1.88492023	    760.84168727	      1.90126458	      0.36783723	      0.00000000	      0.20357377	      0.00000000	      0.78647157	      0.00000000
      2.13600000	      1.88985756	    760.93094419	      1.96249564	      0.36784597	      0.00000000	      0.20361289	      0.00000000	      0.78736135	      0.00000000
      2.13700000	      1.85563753	    761.01688288	      2.05594157	      0.36783043	      0.00000000	      0.20364879	      0.00000000	      0.79253172	      0.00000000
      2.13800000	      1.79090168	    760.97020380	      2.15829013	      0.36781652	      0.00000000	      0.20367308	     -0.00000000	      0.80233539	     -0.00000000
      2.13900000	      1.72702283	    760.84844351	      2.22525768	      0.36781448	      0.00000000	      0.20367399	     -0.00000000	      0.81506540	     -0.00000000
      2.14000000	      1.68380877	    760.69117125	      2.23016669	      0.36783260	      0.00000000	      0.20365388	     -0.00000000	      0.82680558	     -0.00000000
      2.14100000	      1.66713788	    760.59687749	      2.17765174	      0.36784288	      0.00000000	      0.20362335	     -0.00000000	      0.83502277	     -0.00000000
      2.14200000	      1.65679463	    760.51869993	      2.10605079	      0.36783416	      0.00000000	      0.20359590	     -0.00000000	      0.83657430	     -0.00000000
      2.14300000	      1.64398180	    760.42096155	      2.05791129	      0.36781406	      0.00000000	      0.20358599	     -0.00000000	      0.83298825	     -0.00000000
      2.14400000	      1.63497801	    760.28752936	      2.04153700	      0.36779098	      0.00000000	      0.20359348	     -0.00000000	      0.82943650	     -0.00000000
      2.14500000	      1.62796829	    760.07543913	      2.03496782	      0.36778459	      0.00000000	      0.20361955	     -0.00000000	      0.82992569	     -0.00000000
      2.14600000	      1.60536221	    759.79900336	      2.01566116	      0.36779844	      0.00000000	      0.20365428	     -0.00000000	      0.83530319	     -0.00000000
      2.14700000	      1.55950026	    759.57479299	      1.98269115	      0.36782060	      0.00000000	      0.20368202	     -0.00000000	      0.84277781	     -0.00000000
      2.14800000	      1.49616657	    759.39282493	      1.94972427	      0.36784536	      0.00000000	      0.20369209	     -0.00000000	      0.85085666	     -0.00000000
      2.14900000	      1.44415534	    759.30161913	      1.90515509	      0.36785797	      0.00000000	      0.20367897	     -0.00000000	      0.85624990	     -0.00000000
      2.15000000	      1.43561836	    759.25785044	      1.85132036	      0.36785823	      0.00000000	      0.20365358	     -0.00000000	      0.85676526	     -0.00000000
      2.15100000	      1.46545199	    759.20309734	      1.80002614	      0.36785935	      0.00000000	      0.20363053	     -0.00000000	      0.85222352	     -0.00000000
      2.15200000	      1.48976079	    759.08000796	      1.77011090	      0.36786609	      0.00000000	      0.20361492	     -0.00000000	      0.84341820	     -0.00000000
      2.15300000	      1.47282375	    758.90881580	      1.78606493	      0.36785990	      0.00000000	      0.20361037	     -0.00000000	      0.83528139	     -0.00000000
      2.15400000	      1.42352257	    758.75385854	      1.82662164	      0.36783377	      0.00000000	      0.20361368	      0.00000000	      0.82884633	      0.00000000
      2.15500000	      1.38192277	    758.73216838	      1.88211806	      0.36779584	      0.00000000	      0.20362637	      0.00000000	      0.82201581	      0.00000000
